<svg preserveAspectRatio="xMidYMid meet" xmlns="http://www.w3.org/2000/svg" viewBox="0 0 550 559"><g fill="rgb(var(--c-text))"><path fill-rule="evenodd" d="M268.6 21.2c-7.3.9-9 1.6-40.1 15.6-11 4.9-36.2 16.3-56 25.2s-47.2 21.3-61 27.5c-13.7 6.2-33.8 15.2-44.5 20-20 8.9-24.8 12.1-23.1 15.3.8 1.4 57.1 28.2 136.1 64.8 8.5 3.9 31.7 14.7 51.5 23.9 30.8 14.3 36.9 16.8 42.1 17.2 3.7.3 7.6.1 9.9-.7 2.1-.7 19.4-8.6 38.4-17.7 19-9 47-22.3 62.1-29.4 102.1-48.2 121.4-57.6 122.4-59.2 2.5-3.9.6-5.1-29.9-18.6-11-4.9-36-16.1-55.5-24.9s-38.6-17.3-42.5-19c-3.8-1.6-23.2-10.3-43-19.2S297 24.9 294 23.8c-7-2.5-16.7-3.5-25.4-2.6m25.4 79.4c24.2 7.3 32.4 23.8 18.2 36.6-5 4.5-7.8 6-16.5 8.7-27.7 8.5-61.7-2.6-63.5-20.8-1.1-11.4 10.3-21.2 29.6-25.6 8.3-1.8 24.3-1.3 32.2 1.1"/><path d="M506 147.8c-6.9 3.1-68.9 32.7-165.5 78.7-36.8 17.6-43.3 20.9-45.9 23.3-1.6 1.5-3.9 4.9-5.2 7.7l-2.4 5v132.8c0 143-.2 137.9 5.1 140.7 5.6 3.1 7.5 2.2 118.9-53.3 97.4-48.6 107.9-54.1 111.7-58.2 7.8-8.6 7.4 1.3 7.1-141.5-.3-123-.4-127.6-2.2-131.3-4.1-8.2-9.8-9.3-21.6-3.9m-29.4 87.7c5.7 1.7 11.5 7 13.9 12.9 2.1 5.1 2.1 15.7 0 21.6-5.4 15-20 25.6-32.7 23.6-13.3-2.1-21.5-15.1-18.8-29.6 2.7-14.6 12.7-25.8 25.7-28.9 5.5-1.3 6.4-1.3 11.9.4M385.9 378c8.6 4.3 13.3 15.6 11.3 27-5.1 28.6-38.9 40.6-50.5 18-2.6-5-2.8-6.2-2.5-14 .5-10 3.4-16.8 10.2-23.8 9.2-9.7 21.3-12.5 31.5-7.2M26.8 148.3c-1.4 1.2-3.5 3.8-4.5 5.7-1.7 3.3-1.8 9.5-2.1 129.4-.3 140.8-.7 132 6.9 141.6 4 5 5.2 5.7 52.7 29.2 144.7 71.5 170.8 84.1 174.7 84.5 5.1.5 8.5-1.3 10.8-5.7 1.6-3.3 1.7-11.3 1.5-136.5l-.3-133-2.3-4.6c-4.3-8.6-7.6-10.8-39.2-25.4-16.2-7.5-40.1-18.7-53-24.7-12.9-6.1-29.6-13.9-37-17.3-15.7-7.3-41.2-19.3-55.5-26-45.2-21.4-47-22-52.7-17.2m63.5 75.5c6.3 3.4 11.2 9 15 17 2.6 5.7 3.1 7.8 3.1 14.7 0 16.6-9.2 27.4-23.4 27.5-10.7 0-21.2-7.7-26.8-19.8-2.3-4.9-2.7-7-2.7-15.2 0-8.4.3-10.1 2.7-14.7 6.5-12.4 19.7-16.3 32.1-9.5m57.4 83.4c5.2 2.5 11.3 9 14.9 16 3.6 7.1 4.5 19 1.9 26.8-2.3 7-8.4 13.2-14.8 14.9-11.6 3.3-22.9-1.8-30.6-13.7-8.8-13.7-7.2-31.6 3.6-41.2 7-6.1 15.7-7.1 25-2.8m56.5 83.5c6.2 3.4 11.3 9 14.7 16.2 2.3 4.9 2.6 6.9 2.6 15.6 0 9.3-.2 10.4-3.1 15.5-4.1 7.3-10.3 11.2-18.5 11.8-5.2.4-6.8 0-12.4-2.7-6.9-3.4-10.6-7.3-15-16.1-3.7-7.1-4.6-19.2-2.1-26.7 5-15 20-21.1 33.8-13.6"/></g></svg>