<svg xmlns="http://www.w3.org/2000/svg" width="248" height="242" viewBox="0 0 248 242"><path fill-rule="evenodd" d="M.16 57.75C.248 89.513.489 113.925.695 112 5.102 70.846 28.864 35.419 65.4 15.532 78.92 8.173 97.058 2.528 113 .717 114.925.499 90.288.248 58.25.16L0 0zM142.5 1.137C191.816 7.367 232.363 43.616 244.138 92c2.938 12.077 3.614 33.482 1.449 45.901-6.79 38.944-31.884 72.139-68.433 90.525-9.032 4.544-22.345 8.964-33.198 11.023-10.965 2.08-34.548 2.063-44.748-.032-36.581-7.514-68.816-31.669-85.411-64.002C6.06 160.339 2.526 148.62 1.008 133c-.4-4.125-.791 18.712-.868 50.75L0 242h123.941c88.059 0 124.135-.314 124.612-1.086.369-.597.335-55.047-.074-121L247.734 0l-56.117.126c-37.694.085-53.819.417-49.117 1.011m-32 35.297C70.784 44.33 40.797 77.594 38.324 116.5c-2.561 40.294 26.243 78.324 66.341 87.59 7.934 1.833 11.439 2.095 22.612 1.691 11.482-.416 14.474-.901 22.723-3.686 25.772-8.7 44.687-25.687 54.493-48.939 13.468-31.933 6.842-68.306-16.825-92.354-10.332-10.498-25.225-18.969-40.168-22.846-10.365-2.689-27.568-3.397-37-1.522m.808 33.48C98.445 73.594 85.897 83.89 79.69 95.856c-16.613 32.03 2.559 70.383 37.715 75.448 36.57 5.269 67.691-28.805 58.718-64.289-1.173-4.639-3.593-10.86-5.378-13.825-4.214-7-14.762-16.852-21.182-19.784-12.147-5.547-26.496-6.856-38.255-3.492M.469 184c0 32.175.126 45.337.28 29.25s.155-42.413 0-58.5c-.154-16.088-.28-2.925-.28 29.25"/></svg>