<svg xmlns="http://www.w3.org/2000/svg" width="244" height="231" viewBox="0 0 244 231"><path fill-rule="evenodd" d="M0 115.504v115.504l122.25-.254 122.25-.254.254-115.25L245.008 0H0zm.483.496c.001 63.525.121 88.875.267 56.333l.266-59.166 8.242 2.483c4.533 1.365 17.017 5.221 27.742 8.569a7743 7743 0 0 0 36.456 11.269c13.282 4.059 17.334 5.705 18.704 7.597 1.503 2.075 8.502 23.288 24.884 75.415 3.299 10.501 3.888 11.688 4.707 9.5.516-1.375 7.195-21.126 14.843-43.89 10.906-32.461 14.385-41.704 16.124-42.844 1.979-1.297 53.255-17.217 80.028-24.846 5.636-1.606 10.248-3.173 10.25-3.482.004-.543-5.838-2.292-63.35-18.962-14.769-4.281-27.255-8.185-27.747-8.677-.491-.491-6.779-19.322-13.973-41.846-7.193-22.524-13.417-41.303-13.83-41.731-.792-.819-7.151 15.713-21.647 56.278-5.029 14.075-9.647 25.398-10.852 26.61-1.476 1.485-10.684 4.55-31.097 10.351-15.95 4.533-35.399 10.221-43.22 12.64S2.6 112 2.038 112c-.68 0-1.11-18.642-1.288-55.75C.603 25.587.483 52.475.483 116"/></svg>